<svg width="400" height="400" viewBox="0 0 400 400" xmlns="http://www.w3.org/2000/svg" role="img">
  <title>Mohie Icon — Light</title>
  <rect width="400" height="400" rx="88" fill="#F0F4F8"/>
  <rect width="400" height="400" rx="88" fill="none" stroke="#CBD5E0" stroke-width="1"/>
  <g transform="translate(60, 60)">
    <polygon points="140,0 242.5,59.2 242.5,177.6 140,236.8 37.5,177.6 37.5,59.2" fill="none" stroke="#CBD5E0" stroke-width="3.5"/>
    <polygon points="140,22 224,69 224,163 140,210 56,163 56,69" fill="#DBEAFE"/>
    <!-- A -->
    <line x1="82" y1="190" x2="122" y2="74" stroke="#1A5FBF" stroke-width="8" stroke-linecap="round"/>
    <line x1="122" y1="74" x2="140" y2="118" stroke="#1A5FBF" stroke-width="8" stroke-linecap="round"/>
    <line x1="92" y1="150" x2="132" y2="150" stroke="#1A5FBF" stroke-width="6" stroke-linecap="round"/>
    <!-- M -->
    <line x1="140" y1="118" x2="140" y2="190" stroke="#0A0F1E" stroke-width="8" stroke-linecap="round"/>
    <line x1="140" y1="118" x2="160" y2="146" stroke="#0A0F1E" stroke-width="7" stroke-linecap="round"/>
    <line x1="160" y1="146" x2="180" y2="118" stroke="#0A0F1E" stroke-width="7" stroke-linecap="round"/>
    <line x1="180" y1="118" x2="180" y2="190" stroke="#0A0F1E" stroke-width="8" stroke-linecap="round"/>
    <circle cx="140" cy="118" r="7" fill="#1A5FBF"/>
    <!-- Orbit nodes -->
    <circle cx="140" cy="14" r="11" fill="none" stroke="#1A5FBF" stroke-width="3"/>
    <circle cx="140" cy="14" r="4" fill="#1A5FBF"/>
    <circle cx="46" cy="185" r="11" fill="none" stroke="#4FC3F7" stroke-width="3"/>
    <circle cx="46" cy="185" r="4" fill="#4FC3F7"/>
    <circle cx="234" cy="185" r="11" fill="none" stroke="#4FC3F7" stroke-width="3"/>
    <circle cx="234" cy="185" r="4" fill="#4FC3F7"/>
    <!-- Dashed connectors -->
    <line x1="140" y1="25" x2="140" y2="44" stroke="#1A5FBF" stroke-width="2" stroke-dasharray="4,4"/>
    <line x1="56" y1="178" x2="68" y2="165" stroke="#4FC3F7" stroke-width="2" stroke-dasharray="4,4"/>
    <line x1="224" y1="178" x2="212" y2="165" stroke="#4FC3F7" stroke-width="2" stroke-dasharray="4,4"/>
  </g>
</svg>
